# Created by FreeCAD <http://www.freecadweb.org>
mtllib lif.mtl
v -0.282250 -0.012400 -0.192590
v -0.282250 0.000000 -0.192590
v 0.000000 -0.012400 -0.192590
v 0.000000 0.000000 -0.192590
v -0.252748 -0.012400 -0.185370
v -0.252748 0.000000 -0.185370
v -0.266420 -0.012400 -0.163020
v -0.266420 0.000000 -0.163020
v -0.274613 0.000000 -0.149627
v -0.164690 0.000000 -0.131504
v -0.178362 0.000000 -0.109154
v -0.152770 -0.004000 -0.093499
v -0.152770 0.000000 -0.093499
v -0.152770 0.021542 -0.093499
v -0.160963 -0.004000 -0.080106
v -0.160963 0.000000 -0.080106
v -0.160963 0.021542 -0.080106
v -0.046123 -0.004000 -0.028262
v -0.046123 0.000000 -0.028262
v -0.052469 -0.004000 -0.017299
v -0.052469 0.000000 -0.017299
v 0.000000 -0.012400 -0.000000
v 0.000000 0.000000 0.000000
v -0.282250 -0.012400 -0.000000
v -0.282250 -0.000000 -0.000000
vn 0.501002 0.000000 -0.865446
vn 0.501002 0.000000 -0.865446
vn -0.865446 0.000000 -0.501002
vn -0.865446 0.000000 -0.501002
vn -0.521823 0.000000 0.853054
vn -0.521823 0.000000 0.853054
vn 0.000000 1.000000 0.000000
vn 0.000000 1.000000 0.000000
vn -0.000000 1.000000 0.000000
vn 0.000000 1.000000 0.000000
vn -0.000000 1.000000 0.000000
vn 0.000000 1.000000 0.000000
vn -0.000000 1.000000 0.000000
vn 0.000000 1.000000 0.000000
vn -0.000000 1.000000 0.000000
vn -0.000000 1.000000 0.000000
vn 0.000000 1.000000 0.000000
vn -0.000000 1.000000 0.000000
vn 0.000000 1.000000 0.000000
vn 0.000000 1.000000 0.000000
vn 0.000000 1.000000 0.000000
vn 0.853054 0.000000 0.521823
vn 0.853054 -0.000000 0.521823
vn -0.101740 0.992862 -0.062236
vn -0.101740 0.992862 -0.062236
vn -0.521823 0.000000 0.853054
vn 1.000000 0.000000 0.000000
vn 1.000000 0.000000 0.000000
vn 0.000000 -0.000000 -1.000000
vn 0.000000 0.000000 -1.000000
vn -1.000000 0.000000 0.000000
vn -1.000000 0.000000 -0.000000
vn -0.000000 -0.000000 1.000000
vn -0.000000 -0.000000 1.000000
vn -0.000000 -1.000000 0.000000
vn 0.000000 -1.000000 0.000000
vn 0.000000 -1.000000 0.000000
vn 0.000000 -1.000000 -0.000000
vn 0.000000 -1.000000 0.000000
vn -0.000000 -1.000000 0.000000
vn -0.136165 0.987178 -0.083294
vn -0.136165 0.987178 -0.083294
vn 0.853054 -0.000000 0.521823
vn 0.853054 -0.000000 0.521823
vn 0.853054 -0.000000 0.521823
vn 0.853054 -0.000000 0.521823
vn -0.521823 0.000000 0.853054
vn 0.521823 0.000000 -0.853054
vn 0.521823 -0.000000 -0.853054
vn 0.521823 0.000000 -0.853054

usemtl diffuse
f 23//27 22//27 3//27
f 4//28 23//28 3//28
f 4//29 3//29 1//29
f 2//30 4//30 1//30
f 2//31 1//31 24//31
f 25//32 2//32 24//32
f 25//33 24//33 22//33
f 23//34 25//34 22//34
f 5//35 7//35 1//35
f 3//36 5//36 1//36
f 7//37 5//37 3//37
f 22//38 7//38 3//38
f 24//39 7//39 22//39
f 7//40 24//40 1//40
f 23//9 4//9 19//9
f 21//10 23//10 19//10
f 25//11 23//11 21//11
f 16//12 25//12 21//12
f 9//13 25//13 16//13
f 4//14 2//14 6//14
f 10//15 4//15 6//15
f 13//16 4//16 10//16
f 4//21 13//21 19//21
f 2//18 25//18 9//18
f 8//19 2//19 9//19
f 6//20 2//20 8//20

usemtl diffractive
f 15//1 16//1 21//1
f 20//2 15//2 21//2
f 20//3 21//3 19//3
f 18//4 20//4 19//4
f 18//5 19//5 13//5
f 12//6 18//6 13//6
f 18//7 12//7 15//7
f 20//8 18//8 15//8
f 11//17 13//17 10//17
f 6//22 8//22 7//22
f 5//23 6//23 7//23
f 5//24 7//24 11//24
f 10//25 5//25 11//25
f 6//26 5//26 10//26
f 17//41 14//41 8//41
f 9//42 17//42 8//42
f 13//43 14//43 16//43
f 15//44 13//44 16//44
f 12//45 13//45 15//45
f 16//46 14//46 17//46
f 17//47 9//47 16//47
f 11//48 7//48 8//48
f 14//49 11//49 8//49
f 13//50 11//50 14//50
