# Created by FreeCAD <http://www.freecadweb.org>
mtllib lif_tilt.mtl
o Sample
usemtl diffractive
v -0.282250 -0.012400 -0.000000
v -0.282250 -0.000000 -0.000000
v 0.000000 -0.012400 0.000000
v 0.000000 0.000000 0.000000
v -0.052469 -0.004000 0.017299
v -0.052469 0.000000 0.017299
v -0.046123 -0.004000 0.028262
v -0.046123 0.000000 0.028262
v -0.000000 -0.012400 0.041923
v -0.000000 0.000000 0.041923
v -0.160963 -0.004000 0.080106
v -0.160963 0.000000 0.080106
v -0.160963 0.021542 0.080106
v -0.167054 0.021615 0.083832
v -0.173146 0.021553 0.087559
v -0.179236 0.021356 0.091284
v -0.152770 -0.004000 0.093499
v -0.152770 0.000000 0.093499
v -0.152770 0.021542 0.093499
v -0.185321 0.021023 0.095007
v -0.158862 0.021615 0.097225
v -0.191400 0.020555 0.098725
v -0.164954 0.021553 0.100952
v -0.197470 0.019952 0.102438
v -0.171043 0.021356 0.104677
v -0.203530 0.019215 0.106145
v -0.177129 0.021023 0.108399
v -0.178362 0.000000 0.109154
v -0.209576 0.018343 0.109844
v -0.183208 0.020555 0.112118
v -0.215608 0.017337 0.113533
v -0.189278 0.019952 0.115831
v -0.221622 0.016197 0.117212
v -0.195337 0.019215 0.119538
v -0.227616 0.014923 0.120879
v -0.201384 0.018343 0.123237
v -0.233589 0.013517 0.124532
v -0.207415 0.017337 0.126926
v -0.239538 0.011979 0.128171
v -0.213429 0.016197 0.130605
v -0.164690 0.000000 0.131504
v -0.245461 0.010308 0.131795
v -0.219423 0.014923 0.134272
v -0.251356 0.008506 0.135401
v -0.225396 0.013517 0.137925
v -0.257220 0.006574 0.138988
v -0.231345 0.011979 0.141564
v -0.263053 0.004511 0.142556
v -0.237268 0.010308 0.145187
v -0.268851 0.002320 0.146103
v -0.243163 0.008506 0.148793
v -0.274613 0.000000 0.149627
v -0.249028 0.006574 0.152381
v -0.254860 0.004511 0.155949
v -0.260658 0.002320 0.159496
v -0.266420 -0.012400 0.163020
v -0.266420 0.000000 0.163020
v -0.252748 -0.012400 0.185370
v -0.252748 0.000000 0.185370
v -0.282250 -0.012400 0.192590
v -0.282250 0.000000 0.192590
v -0.246304 -0.012400 0.192590
v -0.246304 0.000000 0.192590
vn 0.521823 0.000000 0.853054
vn 0.521823 0.000000 0.853054
vn 0.000000 -0.000000 1.000000
vn 0.000000 0.000000 1.000000
vn -0.000000 1.000000 -0.000000
vn -0.000000 1.000000 -0.000000
vn 0.000000 1.000000 -0.000000
vn 0.000000 1.000000 -0.000000
vn 0.000000 1.000000 -0.000000
vn -0.000000 1.000000 -0.000000
vn -0.000000 1.000000 -0.000000
vn 0.000000 1.000000 -0.000000
vn 0.000000 1.000000 -0.000000
vn 0.000000 1.000000 -0.000000
vn -0.000000 1.000000 -0.000000
vn -0.000000 1.000000 -0.000000
vn 0.000000 1.000000 -0.000000
vn 0.000000 1.000000 -0.000000
vn 0.501002 -0.000000 0.865446
vn 0.501002 -0.000000 0.865446
vn -0.865446 0.000000 0.501002
vn -0.865446 0.000000 0.501002
vn -0.521823 0.000000 -0.853054
vn -0.521823 0.000000 -0.853054
vn -0.000000 1.000000 0.000000
vn 0.000000 1.000000 -0.000000
vn 0.853054 0.000000 -0.521823
vn 0.853054 0.000000 -0.521823
vn -0.101740 0.992862 0.062236
vn -0.101740 0.992862 0.062236
vn -0.521823 -0.000000 -0.853054
vn 1.000000 0.000000 0.000000
vn 1.000000 0.000000 0.000000
vn -1.000000 0.000000 0.000000
vn -1.000000 -0.000000 0.000000
vn 0.000000 -0.000000 -1.000000
vn 0.000000 -0.000000 -1.000000
vn 0.000000 -1.000000 0.000000
vn 0.000000 -1.000000 0.000000
vn 0.000000 -1.000000 0.000000
vn 0.000000 -1.000000 0.000000
vn -0.000000 -1.000000 0.000000
vn -0.000000 -1.000000 0.000000
vn 0.000000 -1.000000 -0.000000
vn -0.277120 0.945763 0.169517
vn -0.277121 0.945763 0.169518
vn -0.261782 0.951749 0.160135
vn -0.261782 0.951749 0.160135
vn -0.246351 0.957393 0.150696
vn -0.246351 0.957393 0.150696
vn -0.230831 0.962694 0.141202
vn -0.230830 0.962694 0.141201
vn -0.215228 0.967648 0.131657
vn -0.215227 0.967649 0.131657
vn -0.199547 0.972256 0.122065
vn -0.199547 0.972256 0.122065
vn -0.183795 0.976514 0.112429
vn -0.183795 0.976514 0.112429
vn -0.167977 0.980421 0.102753
vn -0.167977 0.980421 0.102753
vn -0.152098 0.983976 0.093040
vn -0.152098 0.983977 0.093040
vn -0.136165 0.987178 0.083294
vn -0.136165 0.987178 0.083294
vn -0.120183 0.990026 0.073517
vn -0.120183 0.990026 0.073517
vn -0.104158 0.992518 0.063714
vn -0.104158 0.992518 0.063714
vn -0.088095 0.994653 0.053889
vn -0.088095 0.994653 0.053889
vn -0.072001 0.996432 0.044044
vn -0.072001 0.996432 0.044044
vn -0.055881 0.997852 0.034183
vn -0.055881 0.997852 0.034183
vn -0.039741 0.998914 0.024310
vn -0.039741 0.998914 0.024310
vn -0.023586 0.999618 0.014428
vn -0.023586 0.999618 0.014428
vn -0.007424 0.999962 0.004541
vn -0.007424 0.999962 0.004541
vn 0.008742 0.999947 -0.005348
vn 0.008742 0.999947 -0.005348
vn 0.853054 0.000000 -0.521823
vn 0.853054 0.000000 -0.521823
vn 0.853054 0.000000 -0.521823
vn 0.853054 0.000000 -0.521823
vn -0.521823 -0.000008 -0.853054
vn -0.521823 0.000002 -0.853054
vn -0.521823 -0.000000 -0.853054
vn -0.521823 0.000002 -0.853054
vn -0.521823 -0.000001 -0.853054
vn -0.521823 0.000001 -0.853054
vn -0.521823 -0.000001 -0.853054
vn -0.521823 0.000001 -0.853054
vn -0.521823 0.000001 -0.853054
vn -0.521823 -0.000001 -0.853054
vn -0.521823 -0.000001 -0.853054
vn -0.521823 0.000000 -0.853054
vn -0.521823 0.000001 -0.853054
vn -0.521824 -0.000002 -0.853053
vn -0.521822 0.000000 -0.853054
vn -0.521823 -0.000001 -0.853054
vn -0.521822 0.000000 -0.853054
vn -0.521823 -0.000000 -0.853054
vn -0.521822 0.000000 -0.853054
vn 0.521823 -0.000000 0.853054
vn 0.521823 -0.000000 0.853054
vn 0.521823 0.000000 0.853054
vn 0.521823 -0.000000 0.853054
vn 0.521823 -0.000000 0.853054
vn 0.521822 -0.000000 0.853054
vn 0.521824 0.000000 0.853053
vn 0.521822 -0.000001 0.853055
vn 0.521823 0.000001 0.853054
vn 0.521823 0.000000 0.853054
vn 0.521823 0.000000 0.853054
vn 0.521822 -0.000002 0.853054
vn 0.521823 -0.000001 0.853054
vn 0.521823 0.000001 0.853054
vn 0.521823 0.000003 0.853054
vn 0.521822 -0.000005 0.853054
vn 0.521823 0.000002 0.853054
vn 0.521823 0.000005 0.853054
vn 0.521823 -0.000007 0.853054
vn 0.521823 0.000000 0.853054
vn 0.521823 0.000000 0.853054
f 63//1 62//1 9//1
f 10//2 63//2 9//2
f 62//3 63//3 61//3
f 60//4 62//4 61//4
f 8//5 18//5 10//5
f 4//6 8//6 10//6
f 6//7 8//7 4//7
f 2//8 6//8 4//8
f 12//9 6//9 2//9
f 52//10 12//10 2//10
f 61//11 52//11 2//11
f 57//12 52//12 61//12
f 59//13 57//13 61//13
f 63//14 59//14 61//14
f 41//15 59//15 63//15
f 10//16 41//16 63//16
f 18//17 41//17 10//17
f 41//18 18//18 28//18
f 5//19 6//19 12//19
f 11//20 5//20 12//20
f 7//21 8//21 6//21
f 5//22 7//22 6//22
f 17//23 18//23 8//23
f 7//24 17//24 8//24
f 11//25 17//25 7//25
f 5//26 11//26 7//26
f 58//27 56//27 57//27
f 59//28 58//28 57//28
f 41//29 28//29 56//29
f 58//30 41//30 56//30
f 59//31 41//31 58//31
f 10//32 9//32 3//32
f 4//33 10//33 3//33
f 2//34 1//34 60//34
f 61//35 2//35 60//35
f 4//36 3//36 1//36
f 2//37 4//37 1//37
f 9//38 62//38 58//38
f 56//39 9//39 58//39
f 1//40 9//40 56//40
f 60//41 1//41 56//41
f 58//42 60//42 56//42
f 62//43 60//43 58//43
f 9//44 1//44 3//44
f 52//45 57//45 55//45
f 50//46 52//46 55//46
f 54//47 50//47 55//47
f 48//48 50//48 54//48
f 53//49 48//49 54//49
f 46//50 48//50 53//50
f 51//51 46//51 53//51
f 44//52 46//52 51//52
f 49//53 44//53 51//53
f 42//54 44//54 49//54
f 47//55 42//55 49//55
f 39//56 42//56 47//56
f 45//57 39//57 47//57
f 37//58 39//58 45//58
f 43//59 37//59 45//59
f 35//60 37//60 43//60
f 40//61 35//61 43//61
f 33//62 35//62 40//62
f 38//63 33//63 40//63
f 31//64 33//64 38//64
f 36//65 31//65 38//65
f 29//66 31//66 36//66
f 34//67 29//67 36//67
f 26//68 29//68 34//68
f 32//69 26//69 34//69
f 24//70 26//70 32//70
f 30//71 24//71 32//71
f 22//72 24//72 30//72
f 27//73 22//73 30//73
f 20//74 22//74 27//74
f 25//75 20//75 27//75
f 16//76 20//76 25//76
f 15//77 16//77 25//77
f 23//78 15//78 25//78
f 14//79 15//79 23//79
f 21//80 14//80 23//80
f 13//81 14//81 21//81
f 19//82 13//82 21//82
f 13//83 19//83 18//83
f 12//84 13//84 18//84
f 17//85 12//85 18//85
f 11//86 12//86 17//86
f 12//87 52//87 50//87
f 48//88 12//88 50//88
f 46//89 12//89 48//89
f 12//90 46//90 44//90
f 42//91 12//91 44//91
f 39//92 12//92 42//92
f 12//93 39//93 37//93
f 35//94 12//94 37//94
f 33//95 12//95 35//95
f 12//96 33//96 31//96
f 29//97 12//97 31//97
f 26//98 12//98 29//98
f 12//99 26//99 24//99
f 22//100 12//100 24//100
f 20//101 12//101 22//101
f 12//102 20//102 16//102
f 15//103 12//103 16//103
f 14//104 12//104 15//104
f 12//105 14//105 13//105
f 18//106 19//106 21//106
f 23//107 18//107 21//107
f 25//108 18//108 23//108
f 28//109 18//109 25//109
f 27//110 28//110 25//110
f 30//111 28//111 27//111
f 28//112 30//112 32//112
f 34//113 28//113 32//113
f 36//114 28//114 34//114
f 28//115 36//115 38//115
f 40//116 28//116 38//116
f 43//117 28//117 40//117
f 28//118 43//118 45//118
f 47//119 28//119 45//119
f 49//120 28//120 47//120
f 28//121 49//121 51//121
f 53//122 28//122 51//122
f 54//123 28//123 53//123
f 28//124 54//124 55//124
f 56//125 28//125 55//125
f 57//126 56//126 55//126
